#!OML:ASF E:\emotionWalksFemale\Project 1\Capture day 1\Session 1\Female1.ASF
:FULLY-SPECIFIED
:DEGREES
2591
root 8.58196 15.1801 30.2628 -4.42922 1.4486 -3.89116
lowerback 7.41115 0.0358621 2.42808
upperback 3.26832 0.244357 2.25035
thorax -0.780164 0.128928 0.933852
lowerneck -6.42942 -0.970587 -7.98588
upperneck 47.9316 -0.0396679 1.645
head 19.8504 -1.23868 2.30566
rclavicle -5.54112e-015 9.93923e-016
rhumerus -32.0029 8.34684 -86.5069
rradius 30.0058
rwrist 19.6279
rhand -4.53099 -49.5351
rfingers 7.12502
rthumb 21.244 -78.391
lclavicle -5.54112e-015 9.93923e-016
lhumerus -29.2107 8.69413 87.8348
lradius 38.2812
lwrist -11.5334
lhand -4.72324 -33.381
lfingers 7.12502
lthumb 21.0593 -4.50452
rfemur 1.63264 13.1508 37.7986
rtibia 20.0674
rfoot -19.6163 -28.0574
rtoes 15.0413
lfemur -26.4743 -3.41434 -17.0402
ltibia 50.1104
lfoot -25.0453 11.742
ltoes -11.1046
2592
root 8.58015 15.1862 30.309 -4.29265 1.37545 -3.95088
lowerback 7.26928 0.0371494 2.47605
upperback 3.19015 0.246233 2.2723
thorax -0.782109 0.129785 0.929424
lowerneck -5.99441 -0.93918 -7.83084
upperneck 47.8066 -0.0155528 1.49423
head 19.6302 -1.21338 2.19856
rclavicle -1.06847e-014 -2.18663e-014
rhumerus -32.2852 8.52334 -86.6293
rradius 29.945
rwrist 19.3666
rhand -4.19458 -50.1021
rfingers 7.12502
rthumb 21.5671 -78.9212
lclavicle -1.06847e-014 -2.18663e-014
lhumerus -29.4779 8.80169 87.6895
lradius 38.0543
lwrist -11.614
lhand -4.21857 -33.3604
lfingers 7.12502
lthumb 21.5441 -4.53864
rfemur 1.79439 13.0392 37.8476
rtibia 19.8564
rfoot -19.8293 -27.7859
rtoes 14.6795
lfemur -26.8043 -3.59096 -17.0775
ltibia 49.1085
lfoot -25.0395 11.8198
ltoes -12.0773
2593
root 8.57935 15.1881 30.3539 -4.17698 1.3189 -3.92796
lowerback 7.13412 0.0251655 2.44012
upperback 3.21462 0.221587 2.28324
thorax -0.682321 0.117852 0.962858
lowerneck -5.91313 -0.934677 -7.79744
upperneck 47.7683 0.00841296 1.40742
head 19.5782 -1.20749 2.151
rclavicle 2.48481e-017 -1.98785e-014
rhumerus -32.4071 8.92648 -86.82
rradius 29.8648
rwrist 18.4264
rhand -3.80542 -50.717
rfingers 7.12502
rthumb 21.9408 -79.4927
lclavicle 2.48481e-017 -1.98785e-014
lhumerus -29.5502 8.9395 87.586
lradius 37.7865
lwrist -11.5723
lhand -3.81069 -33.1745
lfingers 7.12502
lthumb 21.9357 -4.39816
rfemur 2.00566 12.8316 37.7926
rtibia 19.5718
rfoot -19.9822 -27.4773
rtoes 14.0493
lfemur -27.0605 -3.82581 -17.2146
ltibia 48.0885
lfoot -25.0864 12.1444
ltoes -13.0248
2594
root 8.58129 15.188 30.4009 -4.14238 1.2971 -4.00559
lowerback 7.10288 -0.0255721 2.52128
upperback 3.27432 0.15659 2.33397
thorax -0.603238 0.0865051 0.974625
lowerneck -6.0886 -0.917174 -7.8682
upperneck 47.8678 0.0683245 1.41473
head 19.6972 -1.20104 2.18069
rclavicle 1.0312e-014 -2.26615e-014
rhumerus -32.4591 9.09446 -86.883
rradius 29.8141
rwrist 18.0564
rhand -3.41833 -50.8623
rfingers 7.12502
rthumb 22.3124 -79.594
lclavicle 1.0312e-014 -2.26615e-014
lhumerus -29.6909 9.09365 87.5388
lradius 37.6945
lwrist -11.4168
lhand -3.49971 -32.7973
lfingers 7.12502
lthumb 22.2343 -4.05627
rfemur 2.24033 12.4744 37.8391
rtibia 19.3117
rfoot -19.7343 -27.3195
rtoes 13.1493
lfemur -27.1302 -4.14517 -17.2715
ltibia 47.0239
lfoot -24.9988 12.5989
ltoes -13.1099
2595
root 8.58318 15.1879 30.4505 -4.18904 1.19386 -4.03437
lowerback 7.2149 -0.0339832 2.54024
upperback 3.29653 0.151022 2.37177
thorax -0.642318 0.0833994 1.00346
lowerneck -6.18824 -0.881563 -7.83057
upperneck 48.0067 0.163293 1.33565
head 19.82 -1.17235 2.15339
rclavicle 2.48481e-016 1.66979e-014
rhumerus -32.5345 8.92655 -86.7651
rradius 29.7684
rwrist 18.8133
rhand -2.9628 -50.6168
rfingers 7.12502
rthumb 22.7497 -79.2955
lclavicle 2.48481e-016 1.66979e-014
lhumerus -29.9275 9.41536 87.4444
lradius 37.547
lwrist -11.5322
lhand -3.00108 -32.7179
lfingers 7.12502
lthumb 22.7129 -4.03463
rfemur 2.60091 12.369 37.9022
rtibia 19.1102
rfoot -19.6374 -27.1558
rtoes 12.8371
lfemur -27.0662 -4.39253 -17.3751
ltibia 45.9309
lfoot -24.9126 12.8575
ltoes -12.5402
2596
root 8.58298 15.1876 30.4969 -4.17738 1.04622 -3.89759
lowerback 7.31063 -0.0046656 2.34563
upperback 3.28926 0.181423 2.37708
thorax -0.703715 0.0963193 1.11572
lowerneck -6.1969 -0.857794 -7.86805
upperneck 48.124 0.237856 1.28249
head 19.9045 -1.16101 2.14833
rclavicle 9.44227e-015 -2.34566e-014
rhumerus -32.5682 8.82516 -86.5882
rradius 29.7167
rwrist 19.8246
rhand -2.42018 -50.1289
rfingers 7.12502
rthumb 23.2703 -78.7427
lclavicle 9.44227e-015 -2.34566e-014
lhumerus -29.9667 9.72976 87.2813
lradius 36.9073
lwrist -12.399
lhand -3.63141 -33.4352
lfingers 7.12502
lthumb 22.1079 -4.6791
rfemur 2.9385 12.4666 37.8159
rtibia 18.8815
rfoot -19.6984 -26.9646
rtoes 12.9804
lfemur -27.0895 -4.57927 -17.6109
ltibia 44.8454
lfoot -24.9343 12.6748
ltoes -11.1197
2597
root 8.58345 15.1934 30.5398 -4.02594 0.970686 -3.90366
lowerback 7.25074 -0.0310439 2.29687
upperback 3.26751 0.141907 2.42015
thorax -0.693172 0.0758147 1.19048
lowerneck -6.23645 -0.82399 -7.99998
upperneck 48.1775 0.308305 1.32579
head 19.9518 -1.15549 2.20742
rclavicle -1.73937e-015 1.23246e-014
rhumerus -32.5408 8.92197 -86.5118
rradius 29.6597
rwrist 20.2311
rhand -2.91978 -50.1696
rfingers 7.12502
rthumb 22.7909 -78.8432
lclavicle -1.73937e-015 1.23246e-014
lhumerus -29.8747 9.82576 87.1563
lradius 35.6513
lwrist -14.0702
lhand -6.77584 -34.9865
lfingers 7.12502
lthumb 19.0864 -5.90304
rfemur 3.06871 12.4419 37.8181
rtibia 18.6615
rfoot -19.6937 -26.8103
rtoes 13.2955
lfemur -27.3098 -4.91019 -17.6727
ltibia 43.7962
lfoot -24.9334 12.5707
ltoes -9.92479
2598
root 8.58796 15.2027 30.5851 -3.84444 0.899892 -3.97945
lowerback 7.10102 -0.077095 2.40924
upperback 3.265 0.0820774 2.44688
thorax -0.612312 0.0471668 1.15938
lowerneck -6.40699 -0.818632 -7.87585
upperneck 48.2789 0.397524 1.1111
head 20.0724 -1.1304 2.09328
rclavicle -7.47927e-015 -4.53229e-014
rhumerus -32.5253 8.93721 -86.4877
rradius 29.6185
rwrist 20.4527
rhand -3.03348 -50.6255
rfingers 7.12502
rthumb 22.6818 -79.3126
lclavicle -7.47927e-015 -4.53229e-014
lhumerus -30.2291 10.2624 86.9098
lradius 35.793
lwrist -14.5588
lhand -6.59278 -34.5975
lfingers 7.12502
lthumb 19.2624 -5.53148
rfemur 3.1583 12.203 37.8186
rtibia 18.4491
rfoot -19.4858 -26.5627
rtoes 12.8967
lfemur -27.5527 -5.36462 -17.6708
ltibia 42.7965
lfoot -24.9208 13.1214
ltoes -10.6273
2599
root 8.59035 15.207 30.6322 -3.73135 0.819918 -3.98089
lowerback 7.03703 -0.0978517 2.42918
upperback 3.25012 0.0535733 2.45649
thorax -0.592097 0.0330717 1.16011
lowerneck -6.52552 -0.820295 -7.7184
upperneck 48.3582 0.467743 0.882342
head 20.1635 -1.10679 1.9614
rclavicle 7.45443e-015 1.11319e-014
rhumerus -32.6731 9.28797 -86.571
rradius 29.6205
rwrist 20.1896
rhand -2.62835 -50.8141
rfingers 7.12502
rthumb 23.0706 -79.4531
lclavicle 7.45443e-015 1.11319e-014
lhumerus -30.4194 10.5911 86.6308
lradius 35.6995
lwrist -14.8696
lhand -6.0393 -34.2167
lfingers 7.12502
lthumb 19.7946 -5.20462
rfemur 3.36513 11.9767 37.7765
rtibia 18.0909
rfoot -18.937 -26.4536
rtoes 12.8594
lfemur -27.7188 -5.72178 -17.7343
ltibia 41.8657
lfoot -24.778 13.6201
ltoes -11.9052
2600
root 8.59106 15.2064 30.6782 -3.69905 0.780727 -4.02168
lowerback 7.07236 -0.1428 2.41112
upperback 3.24687 -0.00523315 2.50297
thorax -0.614824 0.00301656 1.22263
lowerneck -6.56421 -0.764643 -7.74609
upperneck 48.3187 0.557055 0.893123
head 20.1389 -1.07537 1.98636
rclavicle -2.95692e-015 -1.47101e-014
rhumerus -32.8797 9.91651 -86.7604
rradius 29.632
rwrist 19.4337
rhand -3.52314 -50.8847
rfingers 7.12502
rthumb 22.2118 -79.6284
lclavicle -2.95692e-015 -1.47101e-014
lhumerus -30.4536 10.8348 86.39
lradius 35.45
lwrist -14.8949
lhand -5.33514 -33.9888
lfingers 7.12502
lthumb 20.4714 -5.04804
rfemur 3.70568 11.9382 37.8569
rtibia 17.6438
rfoot -18.5738 -26.5193
rtoes 13.4982
lfemur -27.797 -6.00882 -17.7667
ltibia 40.9981
lfoot -24.5575 13.7783
ltoes -12.3892
